<svg xmlns="http://www.w3.org/2000/svg" width="500" height="500" viewBox="0 0 500 500">
    <path d="m318 354-15-78m-103 74 17-71" style="fill:none;stroke:#00e5f8;stroke-width:8px"
          transform="matrix(1 0 0 1.02304 0 -8)"/>
    <path d="m311 274 19 81m-121-83-20 80" style="fill:none;stroke:#0d2432;stroke-width:16px"
          transform="matrix(1 0 0 1.02304 0 -8)"/>
    <path d="m218 351 14-65 60-1 10 69z" style="fill:#718b96" transform="matrix(1 0 0 1.02304 0 -8)"/>
    <path d="m212 354 14-72h66l16 75" style="fill:none;stroke-width:17px;stroke:#253b49"
          transform="matrix(1 0 0 1.02304 0 -8)"/>
    <path d="M74 210h78l15-21 40-2 31-36h202l1 32 19 7-28 38-72-3-35 46-137-1-30-43H69z" style="fill:#344b58"/>
    <path d="M51 159h141l27-42 215-2 2 42-210-2-21 32-54-1-8 14H77l3-20-21-4z" style="fill:#768b97"/>
    <path d="M44 146h140l25-42 212 6 2 9-202 2-28 40-146-1z" style="fill:#b8c4cd"/>
    <path d="M75 210h78l17-23-15 2-8 11H77z" style="fill:#4ee4f9"/>
    <path d="m84 197 60 1 6-11 1-2h3l52-1 19-28 2-2h2l38-1h2l1 1 56 45 1 1v2l-1 24v2l-1 2-50 33h-14l57-39 1-20-53-43-35 1-20 29-1 1h-2l-52 1-7 11-1 2h-2l-65-1zm94-60 27-41h205l26 16 15 23v39l33 2-49 64-69-3-34 42-146-1-35-39H50l19-48-16-1-28-53zM63 175l29 1-18 47h84l35 39 131 1 34-42 70 2 25-32-18-1v-50l-10-17-19-11H214l-27 41H51z"
          style="fill:#0e2633"/>
    <path d="m256 170-1 81 56-37z" style="fill:#79e252;stroke-linejoin:round;stroke-width:12px;stroke-linecap:round"/>
    <path d="m315 219-57 37a6 6 0 0 1-9-5l1-81a6 6 0 0 1 10-4l55 43a6 6 0 0 1 0 10m-53-37-1 58 40-26z"
          style="fill:#0e2533"/>
    <path d="M200 388h119"
          style="fill:none;stroke:#243b49;stroke-width:24px;transform-box:fill-box;transform-origin:51.316%0"/>
    <path d="m201 371 120-1" style="fill:none;stroke:#425a67;stroke-width:16px"/>
    <path d="m305 369 78 1v32l-66-1z" style="fill:#516975"/>
    <path d="M303 386h80m-250 0h80" style="fill:none;stroke-width:32px"/>
    <path d="m200 401-27 1h-40v-32h80z" style="fill:#516975"/>
    <path d="M144 366h68m95-1 68 1" style="fill:none;stroke-width:8px;stroke:#899ca7"/>
    <path d="m303 356 20 49-6 2-19-48Zm-83 3-16 42-6-2 17-42Z" style="fill:#002431"/>
    <path d="m379 348 29 66H109l31-67Zm-243 49h246l-14-32-217-1Z" style="fill:#032432"/>
</svg>
